<svg xmlns="http://www.w3.org/2000/svg" viewBox="0 0 1600 900" width="1600" height="900">
  <defs>
    <radialGradient id="sky" cx="50%" cy="18%" r="82%">
      <stop offset="0" stop-color="#102b61"/>
      <stop offset="0.54" stop-color="#06152f"/>
      <stop offset="1" stop-color="#020711"/>
    </radialGradient>
    <filter id="blur"><feGaussianBlur stdDeviation="10"/></filter>
  </defs>
  <rect width="1600" height="900" fill="url(#sky)"/>
  <rect y="580" width="1600" height="320" fill="#113d25" opacity="0.52"/>
  <ellipse cx="800" cy="770" rx="330" ry="82" fill="none" stroke="#ffffff" stroke-opacity="0.16" stroke-width="4"/>
  <g filter="url(#blur)" opacity="0.58">
    <circle cx="90" cy="80" r="70" fill="#ffffff"/>
    <circle cx="1510" cy="80" r="70" fill="#ffffff"/>
  </g>
  <path d="M-120 500c300-130 530-140 840-52" fill="none" stroke="#e61d25" stroke-opacity="0.2" stroke-width="36"/>
  <path d="M1720 500c-300-130-530-140-840-52" fill="none" stroke="#3cac3b" stroke-opacity="0.2" stroke-width="36"/>
  <g opacity="0.11">
    <path d="M0 0h1600M0 75h1600M0 150h1600M0 225h1600M0 300h1600M0 375h1600M0 450h1600M0 525h1600M0 600h1600M0 675h1600M0 750h1600M0 825h1600" stroke="#ffffff"/>
    <path d="M100 0v900M200 0v900M300 0v900M400 0v900M500 0v900M600 0v900M700 0v900M800 0v900M900 0v900M1000 0v900M1100 0v900M1200 0v900M1300 0v900M1400 0v900M1500 0v900" stroke="#ffffff"/>
  </g>
  <rect width="1600" height="900" fill="#020711" opacity="0.26"/>
</svg>
