<svg xmlns="http://www.w3.org/2000/svg" viewBox="0 0 1600 900" width="1600" height="900">
  <defs>
    <radialGradient id="sky" cx="50%" cy="20%" r="76%">
      <stop offset="0" stop-color="#12306c"/>
      <stop offset="0.48" stop-color="#06152f"/>
      <stop offset="1" stop-color="#020711"/>
    </radialGradient>
    <linearGradient id="pitch" x1="0" y1="0" x2="0" y2="1">
      <stop offset="0" stop-color="#143b27" stop-opacity="0.05"/>
      <stop offset="0.45" stop-color="#19542d" stop-opacity="0.75"/>
      <stop offset="1" stop-color="#07170d"/>
    </linearGradient>
    <filter id="blur">
      <feGaussianBlur stdDeviation="10"/>
    </filter>
  </defs>
  <rect width="1600" height="900" fill="url(#sky)"/>
  <rect y="560" width="1600" height="340" fill="url(#pitch)"/>
  <ellipse cx="800" cy="765" rx="330" ry="82" fill="none" stroke="#ffffff" stroke-opacity="0.24" stroke-width="4"/>
  <path d="M800 560v340" stroke="#ffffff" stroke-opacity="0.18" stroke-width="4"/>
  <path d="M0 646c220-72 426-98 800-98s580 26 800 98" fill="none" stroke="#ffffff" stroke-opacity="0.08" stroke-width="3"/>
  <g filter="url(#blur)" opacity="0.78">
    <circle cx="90" cy="80" r="70" fill="#ffffff"/>
    <circle cx="1510" cy="80" r="70" fill="#ffffff"/>
    <circle cx="320" cy="150" r="42" fill="#ffffff" opacity="0.55"/>
    <circle cx="1280" cy="150" r="42" fill="#ffffff" opacity="0.55"/>
  </g>
  <path d="M-80 505c270-130 500-130 780-55" fill="none" stroke="#e61d25" stroke-opacity="0.32" stroke-width="36"/>
  <path d="M1680 505c-270-130-500-130-780-55" fill="none" stroke="#3cac3b" stroke-opacity="0.32" stroke-width="36"/>
  <path d="M0 0h1600v900H0z" fill="#020711" opacity="0.2"/>
  <g opacity="0.08">
    <path d="M0 0h1600M0 90h1600M0 180h1600M0 270h1600M0 360h1600M0 450h1600M0 540h1600M0 630h1600M0 720h1600M0 810h1600" stroke="#ffffff"/>
    <path d="M160 0v900M320 0v900M480 0v900M640 0v900M800 0v900M960 0v900M1120 0v900M1280 0v900M1440 0v900" stroke="#ffffff"/>
  </g>
</svg>
