<svg xmlns="http://www.w3.org/2000/svg" viewBox="0 0 1600 900" width="1600" height="900">
  <defs>
    <radialGradient id="sky" cx="50%" cy="22%" r="82%">
      <stop offset="0" stop-color="#122c64"/>
      <stop offset="0.54" stop-color="#06152f"/>
      <stop offset="1" stop-color="#020711"/>
    </radialGradient>
    <filter id="blur"><feGaussianBlur stdDeviation="10"/></filter>
  </defs>
  <rect width="1600" height="900" fill="url(#sky)"/>
  <rect y="570" width="1600" height="330" fill="#103c24" opacity="0.58"/>
  <ellipse cx="800" cy="770" rx="330" ry="82" fill="none" stroke="#ffffff" stroke-opacity="0.16" stroke-width="4"/>
  <g filter="url(#blur)" opacity="0.68">
    <circle cx="90" cy="80" r="70" fill="#ffffff"/>
    <circle cx="1510" cy="80" r="70" fill="#ffffff"/>
  </g>
  <path d="M-100 220c390 55 600 70 900 35s520-30 900 36" fill="none" stroke="#2a398d" stroke-opacity="0.36" stroke-width="58"/>
  <path d="M-90 505c280-118 500-130 780-58" fill="none" stroke="#e61d25" stroke-opacity="0.26" stroke-width="34"/>
  <path d="M1690 505c-280-118-500-130-780-58" fill="none" stroke="#3cac3b" stroke-opacity="0.26" stroke-width="34"/>
  <g opacity="0.09">
    <path d="M0 0h1600M0 50h1600M0 100h1600M0 150h1600M0 200h1600M0 250h1600M0 300h1600M0 350h1600M0 400h1600M0 450h1600M0 500h1600M0 550h1600M0 600h1600M0 650h1600M0 700h1600M0 750h1600M0 800h1600M0 850h1600" stroke="#ffffff"/>
    <path d="M100 0v900M200 0v900M300 0v900M400 0v900M500 0v900M600 0v900M700 0v900M800 0v900M900 0v900M1000 0v900M1100 0v900M1200 0v900M1300 0v900M1400 0v900M1500 0v900" stroke="#ffffff"/>
  </g>
  <rect width="1600" height="900" fill="#020711" opacity="0.24"/>
</svg>
